<?xml version="1.0" encoding="UTF-8"?>
<svg width="121px" height="121px" viewBox="0 0 121 121" version="1.1" xmlns="http://www.w3.org/2000/svg" xmlns:xlink="http://www.w3.org/1999/xlink">
    <title>E2BFD5CC-E73F-4607-BB36-782F1DCC44EE</title>
    <g id="XOMS2.0---Phase-2" stroke="none" stroke-width="1" fill="none" fill-rule="evenodd">
        <g id="XOMS2-JobDetails-CreatePOs-04-SendEDI" transform="translate(-303.000000, -242.000000)">
            <g id="Group-2" transform="translate(165.000000, 70.000000)">
                <g id="Search-and-Filters" transform="translate(0.500000, 70.000000)">
                    <g id="icon-120-edi" transform="translate(138.000000, 102.900000)">
                        <circle id="Oval" fill-opacity="0.3" fill="#5BC0EB" cx="60" cy="60" r="60"></circle>
                        <circle id="Oval" fill="#5BC0EB" cx="60" cy="60" r="50"></circle>
                        <path d="M46.9633297,49.6868445 L84.060639,49.6868445 C85.4785763,49.6868445 86.7671311,50.2663516 87.7011621,51.1970097 L87.7318345,51.2310023 C88.6487374,52.1616076 89.2180204,53.4398856 89.2180204,54.8442787 L89.2180204,82.3459915 C89.2180204,83.7674071 88.6419916,85.0559619 87.7079079,85.9899402 C86.7739297,86.9205456 85.4854802,87.5 84.060639,87.5 L56.5622991,87.5 C55.1476292,87.5 53.8591271,86.9205456 52.9252015,85.9899402 C51.9843721,85.0491107 51.4048649,83.7572357 51.4048649,82.3459915 L51.4048649,75.467164 C51.4048649,74.5194833 52.1752574,73.7491436 53.1262583,73.7491436 C54.0705133,73.7491436 54.8442787,74.5194833 54.8442787,75.467164 L54.8442787,82.3459915 C54.8442787,82.8096077 55.0284182,83.239126 55.3248648,83.5459022 L55.3419401,83.5595519 C55.6555675,83.8731266 56.088406,84.0640119 56.5622991,84.0640119 L84.060639,84.0640119 C84.5343739,84.0640119 84.9638922,83.8696483 85.2775196,83.5595519 C85.5910943,83.2493501 85.7819269,82.8164062 85.7819269,82.3459915 L85.7819269,54.8442787 C85.7819269,54.3738639 85.5910943,53.9410254 85.2843181,53.6273453 C84.9638922,53.3138233 84.5343739,53.1262583 84.060639,53.1262583 L46.9633297,53.1262583 L50.9037778,57.0633335 C51.5753547,57.734963 51.5753547,58.8257286 50.9037778,59.4938272 C50.2356793,60.1652987 49.1414354,60.1652987 48.4699639,59.4938272 L41.597935,52.621851 L41.5672626,52.5911259 L41.563837,52.5877003 L41.5433361,52.5604536 L41.5126637,52.5332068 L41.5093435,52.5228773 L41.485417,52.4956306 L41.4786185,52.4888847 L41.4581702,52.4649582 L41.4513717,52.4547868 L41.4342964,52.4309657 L41.4070497,52.4002406 L41.4001984,52.3866436 L41.3866014,52.3661427 L41.3763773,52.3490673 L41.3627276,52.331992 L41.3524508,52.3150748 L41.345705,52.2945738 L41.3217784,52.2604232 L41.3081287,52.2434006 L41.3013829,52.2264306 L41.2877332,52.2059297 L41.280882,52.1854288 L41.2672322,52.1650332 L41.2604864,52.1514362 L41.2536352,52.1309353 L41.2468894,52.11386 L41.2365599,52.0935171 L41.2298141,52.0730162 L41.2194846,52.0491951 L41.2161644,52.0321197 L41.2058875,52.0116188 L41.199089,51.9945962 L41.1922378,51.9741479 L41.185492,51.9571253 L41.1786408,51.9332515 L41.1649911,51.8957279 L41.1582453,51.8753324 L41.1513941,51.8548314 L41.1479157,51.8377561 L41.1411699,51.8173079 L41.1377443,51.7934867 L41.1343187,51.7764114 L41.1308931,51.7491647 L41.1240946,51.7320894 L41.120669,51.7082682 L41.1172434,51.6946712 L41.1172434,51.6707447 L41.1139232,51.6537747 L41.1104976,51.6231024 L41.1104976,51.6094527 L41.1035937,51.5787803 L41.1035937,51.5651306 L41.1002735,51.5378838 L41.1002735,51.527607 L41.0968479,51.4935618 L41.0968479,51.4867106 L41.0968479,51.4492397 L41.0968479,51.4458141 L41.0968479,51.4082905 L41.0968479,51.3639685 L41.0968479,51.3606483 L41.0968479,51.323072 L41.0968479,51.3162735 L41.1002735,51.2821755 L41.1002735,51.2720041 L41.1035937,51.2413318 L41.1035937,51.2310023 L41.1104976,51.1970097 L41.1104976,51.18336 L41.1139232,51.1561132 L41.1172434,51.1423581 L41.1172434,51.118537 L41.120669,51.1015144 L41.1240946,51.0776932 L41.1308931,51.0571923 L41.1343187,51.0367968 L41.1377443,51.0162958 L41.1411699,50.9957949 L41.1479157,50.978825 L41.1513941,50.958324 L41.1582453,50.9345029 L41.1649911,50.9174803 L41.1786408,50.8765838 L41.185492,50.8526573 L41.1922378,50.8390075 L41.199089,50.8185593 L41.2058875,50.7981638 L41.2161644,50.7776628 L41.2194846,50.7572673 L41.2298141,50.7333408 L41.2365599,50.7162654 L41.2468894,50.6992955 L41.2536352,50.6822729 L41.2604864,50.661772 L41.2672322,50.6413764 L41.280882,50.6208755 L41.2877332,50.6038002 L41.3013829,50.5867775 L41.3081287,50.566382 L41.3217784,50.5527323 L41.345705,50.5152087 L41.3524508,50.4948132 L41.3627276,50.4810581 L41.3763773,50.4607152 L41.3866014,50.4436399 L41.4001984,50.423139 L41.4070497,50.4129149 L41.4342964,50.3788169 L41.4513717,50.3515702 L41.4581702,50.3481446 L41.4786185,50.3208978 L41.485417,50.3106737 L41.5093435,50.283427 L41.5126637,50.2765758 L41.5433361,50.2527546 L41.563837,50.2220296 L41.5672626,50.218604 L41.597935,50.1879316 L48.4699639,43.3124771 C49.1414354,42.6444839 50.2356793,42.6444839 50.9037778,43.3124771 C51.5753547,43.9841066 51.5753547,45.0714993 50.9037778,45.7429708 L46.9633297,49.6868445 Z M71.5299834,76.68415 C70.8619902,77.3521959 69.7676936,77.3521959 69.0996478,76.68415 C68.4281763,76.0125205 68.4281763,74.9251805 69.0996478,74.2536036 L73.0402013,70.3096772 L35.9394137,70.3096772 C34.5282222,70.3096772 33.2362945,69.7337011 32.2989433,68.7996701 L32.2682182,68.7689977 C31.3512626,67.8417653 30.7819796,66.5601671 30.7819796,65.155774 L30.7819796,37.6540085 C30.7819796,36.2325402 31.361434,34.9406652 32.2920394,34.0067396 C33.2294433,33.0795071 34.5179981,32.5 35.9394137,32.5 L63.4411265,32.5 C64.8625422,32.5 66.1544172,33.0795071 67.0816497,34.0067396 C68.0156807,34.9406652 68.6019863,36.2359658 68.6019863,37.6540085 L68.6019863,44.5295158 C68.6019863,45.4770911 67.8281156,46.2508564 66.8805403,46.2508564 C65.9260611,46.2508564 65.1625725,45.4770911 65.1625725,44.5295158 L65.1625725,37.6540085 C65.1625725,37.1802209 64.9647833,36.7507553 64.6545815,36.4405008 C64.3410596,36.1268734 63.9115413,35.9326679 63.4411265,35.9326679 L35.9394137,35.9326679 C35.468999,35.9326679 35.0360551,36.1268734 34.7258533,36.4405008 C34.4156515,36.7507553 34.221446,37.1802209 34.221446,37.6540085 L34.221446,65.155774 C34.221446,65.629509 34.4089057,66.0590273 34.7191075,66.3692818 C35.0395334,66.6862821 35.468999,66.8737417 35.9394137,66.8737417 L73.0402013,66.8737417 L69.0996478,62.9332409 C68.4281763,62.2650897 68.4281763,61.1708984 69.0996478,60.5027472 C69.7676936,59.8346486 70.8619902,59.8346486 71.5299834,60.5027472 L78.4055433,67.3782017 L78.4361103,67.4123524 L78.4635151,67.4395991 L78.4907619,67.4702715 L78.4941875,67.47707 L78.514583,67.5009965 L78.5214342,67.511168 L78.5418298,67.5350418 L78.548681,67.5452659 L78.5657036,67.5657141 L78.593003,67.5963865 L78.5997489,67.6100362 L78.6168242,67.6304844 L78.6236754,67.6475598 L78.6373251,67.6679553 L78.6509748,67.6850306 L78.6577206,67.7054789 L78.6816472,67.7361512 L78.6918186,67.7565994 L78.70199,67.7736221 L78.7123195,67.794123 L78.7224909,67.8145712 L78.7327151,67.8349668 L78.7395663,67.8520421 L78.7497904,67.8724903 L78.7599618,67.8860873 L78.7633874,67.9065883 L78.7702386,67.9236109 L78.7804627,67.9474847 L78.7873667,67.9645074 L78.7975381,67.9883812 L78.8042839,68.0019782 L78.8111878,68.0224792 L78.8179336,68.0395018 L78.8247321,68.0633756 L78.8383818,68.1042721 L78.8418601,68.1247203 L78.8486059,68.1451686 L78.8555099,68.1622439 L78.8588828,68.1826921 L78.8656813,68.206566 L78.8690542,68.2270142 L78.8725325,68.250888 L78.8759581,68.2678579 L78.8827039,68.2917318 L78.8861822,68.3088598 L78.8896078,68.332681 L78.8928753,68.3497036 L78.8963536,68.377003 L78.8963536,68.3906 L78.8997792,68.4178995 L78.8997792,68.4315492 L78.9032048,68.4587432 L78.9032048,68.4690201 L78.906525,68.5030653 L78.906525,68.5099165 L78.906525,68.550813 L78.906525,68.5542386 L78.906525,68.5917622 L78.906525,68.6326586 L78.906525,68.6360842 L78.906525,68.6803536 L78.906525,68.6837792 L78.9032048,68.7213028 L78.9032048,68.7281013 L78.8997792,68.7587736 L78.8997792,68.7689977 L78.8963536,68.7996701 L78.8963536,68.8133198 L78.8928753,68.8405666 L78.8896078,68.8576419 L78.8861822,68.8780374 L78.8827039,68.8951127 L78.8759581,68.9189866 L78.8725325,68.9394348 L78.8690542,68.9633086 L78.8656813,68.9803313 L78.8588828,69.0042051 L78.8555099,69.0212277 L78.8486059,69.041676 L78.8418601,69.0621769 L78.8383818,69.0825724 L78.8247321,69.1235216 L78.8179336,69.1473954 L78.8111878,69.1644181 L78.8042839,69.1848663 L78.7975381,69.2018889 L78.7873667,69.2223372 L78.7804627,69.2428381 L78.7702386,69.2632863 L78.7633874,69.2802562 L78.7599618,69.3041301 L78.7497904,69.3177798 L78.7395663,69.3382807 L78.7327151,69.3553034 L78.7224909,69.3757516 L78.7123195,69.3927742 L78.70199,69.4132225 L78.6918186,69.4302978 L78.6816472,69.450746 L78.6577206,69.4814184 L78.6509748,69.5018139 L78.6373251,69.5189419 L78.6236754,69.5393375 L78.6168242,69.5564655 L78.5997489,69.5803393 L78.593003,69.5905107 L78.5657036,69.6211831 L78.548681,69.6450569 L78.5418298,69.655281 L78.5214342,69.6791549 L78.514583,69.6859534 L78.4941875,69.7132001 L78.4907619,69.7200513 L78.4635151,69.7473508 L78.4361103,69.7780231 L78.4055433,69.8086428 L71.5299834,76.68415 Z" id="Fill-1" fill="#FFFFFF"></path>
                    </g>
                </g>
            </g>
        </g>
    </g>
</svg>