<?xml version="1.0" encoding="UTF-8"?>
<svg width="24px" height="24px" viewBox="0 0 24 24" version="1.1" xmlns="http://www.w3.org/2000/svg" xmlns:xlink="http://www.w3.org/1999/xlink">
    <!-- Generator: Sketch 55.2 (78181) - https://sketchapp.com -->
    <title>icon/24/calendar</title>
    <desc>Created with Sketch.</desc>
    <g id="Symbols" stroke="none" stroke-width="1" fill="none" fill-rule="evenodd">
        <g id="icon/24/calendar">
            <g id="Group">
                <g>
                    <polygon id="Shape" points="0 0 24 0 24 24 0 24"></polygon>
                    <path d="M17,12 L12,12 L12,17 L17,17 L17,12 L17,12 Z M16,1 L16,3 L8,3 L8,1 L6,1 L6,3 L5,3 C3.89,3 3.01,3.9 3.01,5 L3,19 C3,20.1 3.89,21 5,21 L19,21 C20.1,21 21,20.1 21,19 L21,5 C21,3.9 20.1,3 19,3 L18,3 L18,1 L16,1 L16,1 Z M19,19 L5,19 L5,8 L19,8 L19,19 L19,19 Z" id="Shape" fill="#9EA0A5"></path>
                </g>
            </g>
        </g>
    </g>
</svg>