<?xml version="1.0" encoding="UTF-8"?>
<svg width="24px" height="24px" viewBox="0 0 24 24" version="1.1" xmlns="http://www.w3.org/2000/svg" xmlns:xlink="http://www.w3.org/1999/xlink">
    <!-- Generator: Sketch 60 (88103) - https://sketch.com -->
    <title>icon-24-artwork-inactive</title>
    <desc>Created with Sketch.</desc>
    <g id="icon-24-artwork-inactive" stroke="none" stroke-width="1" fill="none" fill-rule="evenodd">
        <g>
            <polygon id="Shape" points="0 0 24 0 24 24 0 24"></polygon>
            <path d="M8.51836873,7.21053874 C8.7253118,6.3779538 9.57577222,5.86781506 10.4076696,6.07475813 L10.4076696,6.07475813 L21.4959684,8.83995765 C22.3278658,9.04827576 22.8380046,9.89804866 22.630374,10.7306336 L22.630374,10.7306336 L19.864487,21.8182449 C19.6575439,22.6494548 18.8070835,23.1609685 17.9751861,22.9540255 L17.9751861,22.9540255 L6.88757478,20.1881384 C6.05567737,19.9798203 5.5448511,19.1314225 5.75316921,18.2988375 L5.75316921,18.2988375 Z M10.534173,7.71311478 C10.2571031,7.64505045 9.97315793,7.81418 9.90440608,8.09193749 L9.90440608,8.09193749 L7.89272687,16.1558423 C7.82397501,16.4335998 7.99447961,16.7168574 8.27154958,16.7856093 L8.27154958,16.7856093 L18.3519462,19.299177 C18.6283287,19.3686164 18.9122738,19.1981118 18.9810257,18.9217293 L18.9810257,18.9217293 L20.9927049,10.8564495 C21.0621442,10.580067 20.8916396,10.2954344 20.6138822,10.2280575 L20.6138822,10.2280575 Z M16.0590719,12.4171165 C16.2756403,12.2074234 16.5293346,12.2706751 16.6228371,12.5580578 L16.6228371,12.5580578 L18.3258205,17.7618856 C18.419323,18.0492683 18.2605062,18.2060225 17.9676234,18.132458 L17.9676234,18.132458 L15.837691,17.6010062 C15.5448081,17.5281293 15.0656077,17.408501 14.7727248,17.3363116 L14.7727248,17.3363116 L12.2557194,16.7092947 C11.962149,16.6350427 11.4836361,16.5154145 11.1907532,16.44185 L11.1907532,16.44185 L9.06013333,15.9117732 C8.76793795,15.8382087 8.73493706,15.6704542 8.99413155,15.5157625 L8.99413155,15.5157625 L12.2818451,13.5549597 C12.5403521,13.398893 12.8786112,13.4834578 13.0346779,13.7426523 L13.0346779,13.7426523 L13.3584992,14.2796042 C13.5138783,14.5387987 13.8191366,14.5793623 14.0357049,14.3710442 L14.0357049,14.3710442 Z M12.983114,1.10399919 C13.7826981,0.795303368 14.689535,1.19750171 14.9982308,1.99708575 L14.9982308,1.99708575 L16.6125243,6.20607417 L14.7658496,5.74543676 L13.7304467,3.04142639 C13.6280064,2.77535672 13.3254983,2.64197813 13.0587411,2.74441839 L13.0587411,2.74441839 L3.36610489,6.48383166 C3.0993477,6.5855844 2.96596911,6.88740503 3.06772185,7.15484974 L3.06772185,7.15484974 L5.52422554,13.5343341 L4.86833287,16.1654675 L1.42730265,7.23116429 C1.11860683,6.43158025 1.52080517,5.52474331 2.32038921,5.21535997 L2.32038921,5.21535997 Z M12.2729074,9.09777709 C13.0520641,9.09777709 13.6836954,9.7294084 13.6836954,10.5085651 C13.6836954,11.2877218 13.0520641,11.9193531 12.2729074,11.9193531 C11.4937507,11.9193531 10.8621194,11.2877218 10.8621194,10.5085651 C10.8621194,9.7294084 11.4937507,9.09777709 12.2729074,9.09777709 Z" id="Combined-Shape" fill="#3399CC" fill-rule="nonzero"></path>
        </g>
    </g>
</svg>