<?xml version="1.0" encoding="UTF-8"?>
<svg width="54px" height="54px" viewBox="0 0 54 54" version="1.1" xmlns="http://www.w3.org/2000/svg" xmlns:xlink="http://www.w3.org/1999/xlink">
    <title>icon-54-invoice-ipu</title>
    <defs>
        <circle id="path-1" cx="20" cy="20" r="20"></circle>
    </defs>
    <g id="icon-54-invoice-ipu" stroke="none" stroke-width="1" fill="none" fill-rule="evenodd">
        <g id="icon-54-supportnote-ipu" transform="translate(7.000000, 7.000000)">
            <g id="Oval">
                <circle stroke="#FFCE01" stroke-width="6" fill="#FFCE01" fill-rule="evenodd" cx="20" cy="20" r="23"></circle>
                <circle stroke="#FFFFFF" stroke-width="3" cx="20" cy="20" r="21.5"></circle>
            </g>
            <g id="ic_receipt_24px" transform="translate(8.500000, 8.000000)">
                <g id="Group">
                    <polygon id="Shape" points="0 0 24 0 24 24 0 24"></polygon>
                    <path d="M18,17 L6,17 L6,15 L18,15 L18,17 L18,17 Z M18,13 L6,13 L6,11 L18,11 L18,13 L18,13 Z M18,9 L6,9 L6,7 L18,7 L18,9 L18,9 Z M3,22 L4.5,20.5 L6,22 L7.5,20.5 L9,22 L10.5,20.5 L12,22 L13.5,20.5 L15,22 L16.5,20.5 L18,22 L19.5,20.5 L21,22 L21,2 L19.5,3.5 L18,2 L16.5,3.5 L15,2 L13.5,3.5 L12,2 L10.5,3.5 L9,2 L7.5,3.5 L6,2 L4.5,3.5 L3,2 L3,22 L3,22 Z" id="Shape" fill="#FFFFFF"></path>
                </g>
            </g>
        </g>
    </g>
</svg>