<?xml version="1.0" encoding="UTF-8"?>
<svg width="20px" height="21px" viewBox="0 0 20 21" version="1.1" xmlns="http://www.w3.org/2000/svg" xmlns:xlink="http://www.w3.org/1999/xlink">
    <title>icon-24-error</title>
    <g id="XOMS2.0---Phase-2" stroke="none" stroke-width="1" fill="none" fill-rule="evenodd">
        <g id="XOMS2-JobDetails-Notes" transform="translate(-459.000000, -982.000000)">
            <g id="Main-Panel" transform="translate(280.000000, 125.000000)">
                <g id="Invoice-Note-01" transform="translate(74.000000, 777.895522)">
                    <g id="Group-2" transform="translate(73.000000, 60.000000)">
                        <g id="icon-24-error" transform="translate(30.000000, 17.500000)">
                            <g id="Group">
                                <g>
                                    <polygon id="Shape" points="0 0 24 0 24 24 0 24"></polygon>
                                    <path d="M12,2 C6.48,2 2,6.48 2,12 C2,17.52 6.48,22 12,22 C17.52,22 22,17.52 22,12 C22,6.48 17.52,2 12,2 L12,2 Z M13,17 L11,17 L11,15 L13,15 L13,17 L13,17 Z M13,13 L11,13 L11,7 L13,7 L13,13 L13,13 Z" id="Shape" fill="#E6492D"></path>
                                </g>
                            </g>
                        </g>
                    </g>
                </g>
            </g>
        </g>
    </g>
</svg>