<?xml version="1.0" encoding="UTF-8"?>
<svg width="54px" height="54px" viewBox="0 0 54 54" version="1.1" xmlns="http://www.w3.org/2000/svg" xmlns:xlink="http://www.w3.org/1999/xlink">
    <title>icon-54-supportnote-aff</title>
    <defs>
        <circle id="path-1" cx="20" cy="20" r="20"></circle>
    </defs>
    <g id="icon-54-supportnote-aff" stroke="none" stroke-width="1" fill="none" fill-rule="evenodd">
        <g transform="translate(7.000000, 7.000000)">
            <g id="Oval">
                <circle stroke="#5BC0EB" stroke-width="6" fill="#5BC0EB" fill-rule="evenodd" cx="20" cy="20" r="23"></circle>
                <circle stroke="#FFFFFF" stroke-width="3" cx="20" cy="20" r="21.5"></circle>
            </g>
            <g id="ic_message_24px" transform="translate(8.500000, 8.000000)">
                <g id="Group">
                    <polygon id="Shape" points="0 0 24 0 24 24 0 24"></polygon>
                    <path d="M20,2 L4,2 C2.9,2 2.01,2.9 2.01,4 L2,22 L6,18 L20,18 C21.1,18 22,17.1 22,16 L22,4 C22,2.9 21.1,2 20,2 L20,2 Z M18,14 L6,14 L6,12 L18,12 L18,14 L18,14 Z M18,11 L6,11 L6,9 L18,9 L18,11 L18,11 Z M18,8 L6,8 L6,6 L18,6 L18,8 L18,8 Z" id="Shape" fill="#FFFFFF"></path>
                </g>
            </g>
        </g>
    </g>
</svg>