<?xml version="1.0" encoding="UTF-8"?>
<svg width="54px" height="54px" viewBox="0 0 54 54" version="1.1" xmlns="http://www.w3.org/2000/svg" xmlns:xlink="http://www.w3.org/1999/xlink">
    <title>icon-54-payment-ipu</title>
    <defs>
        <circle id="path-1" cx="20" cy="20" r="20"></circle>
    </defs>
    <g id="icon-54-payment-ipu" stroke="none" stroke-width="1" fill="none" fill-rule="evenodd">
        <g id="icon-54-supportnote-ipu" transform="translate(7.000000, 7.000000)">
            <g id="Oval">
                <circle stroke="#FFCE01" stroke-width="6" fill="#FFCE01" fill-rule="evenodd" cx="20" cy="20" r="23"></circle>
                <circle stroke="#FFFFFF" stroke-width="3" cx="20" cy="20" r="21.5"></circle>
            </g>
            <g id="ic_credit_card_24px" transform="translate(8.500000, 8.000000)">
                <g id="Group">
                    <polygon id="Shape" points="0 0 24 0 24 24 0 24"></polygon>
                    <path d="M20,4 L4,4 C2.89,4 2.01,4.89 2.01,6 L2,18 C2,19.11 2.89,20 4,20 L20,20 C21.11,20 22,19.11 22,18 L22,6 C22,4.89 21.11,4 20,4 L20,4 Z M20,18 L4,18 L4,12 L20,12 L20,18 L20,18 Z M20,8 L4,8 L4,6 L20,6 L20,8 L20,8 Z" id="Shape" fill="#FFFFFF"></path>
                </g>
            </g>
        </g>
    </g>
</svg>