<?xml version="1.0" encoding="UTF-8"?>
<svg width="24px" height="24px" viewBox="0 0 24 24" version="1.1" xmlns="http://www.w3.org/2000/svg" xmlns:xlink="http://www.w3.org/1999/xlink">
    <!-- Generator: Sketch 60 (88103) - https://sketch.com -->
    <title>icon-24-presentation-inactive</title>
    <desc>Created with Sketch.</desc>
    <g id="icon-24-presentation-inactive" stroke="none" stroke-width="1" fill="none" fill-rule="evenodd">
        <g id="Shape">
            <polygon points="0 0 24 0 24 24 0 24"></polygon>
            <path d="M22,13 L14,13 L14,11 L22,11 L22,13 L22,13 Z M22,7 L14,7 L14,9 L22,9 L22,7 L22,7 Z M14,17 L22,17 L22,15 L14,15 L14,17 L14,17 Z M12,9 L12,15 C12,16.1 11.1,17 10,17 L4,17 C2.9,17 2,16.1 2,15 L2,9 C2,7.9 2.9,7 4,7 L10,7 C11.1,7 12,7.9 12,9 L12,9 Z M10.5,15 L8.25,12 L6.5,14.26 L5.25,12.75 L3.5,15 L10.5,15 L10.5,15 Z" fill="white"></path>
        </g>
    </g>
</svg>