<?xml version="1.0" encoding="UTF-8"?>
<svg width="24px" height="24px" viewBox="0 0 24 24" version="1.1" xmlns="http://www.w3.org/2000/svg" xmlns:xlink="http://www.w3.org/1999/xlink">
    <!-- Generator: Sketch 60 (88103) - https://sketch.com -->
    <title>icon-24-products-inactive</title>
    <desc>Created with Sketch.</desc>
    <g id="icon-24-products-inactive" stroke="none" stroke-width="1" fill="none" fill-rule="evenodd">
        <g>
            <polygon id="Shape" points="0 0 24 0 24 24 0 24"></polygon>
            <path d="M23.0263949,5.34530461 C22.9834319,5.22086017 22.8797282,5.11863794 22.7589875,5.06308239 L18.6338023,3.16900831 C17.760469,2.87345276 16.8241727,2.63937868 15.9263949,2.46900831 C15.6686171,2.41863794 15.3256542,2.58160091 15.2678764,2.8378972 C14.9434319,4.26826757 13.8219505,5.35863794 11.974543,5.35863794 C10.1278764,5.35863794 9.02935786,4.26752683 8.70491342,2.8378972 C8.64713564,2.58234165 8.31528379,2.41863794 8.05824675,2.46900831 C7.16046898,2.64011942 6.23009861,2.87345276 5.35602453,3.16974905 L1.23454305,5.06308239 C1.11380231,5.11863794 1.01009861,5.22086017 0.967876383,5.34530461 C0.924172679,5.47048979 0.927876383,5.60752683 0.989357864,5.72530461 L2.76713564,9.24086017 C2.87232083,9.45123054 3.13972823,9.55493424 3.36491342,9.48678609 L5.35602453,9.00618767 L5.64195046,21.1016009 C5.64195046,21.4860454 5.91676527,21.5401194 6.30046898,21.5401194 L17.7249134,21.5401194 C18.1093579,21.5401194 18.4567653,21.4860454 18.4567653,21.1016009 L18.6338023,9.00618767 L20.6819505,9.48678609 C20.9063949,9.55493424 21.1471356,9.45123054 21.2523208,9.24086017 L23.017506,5.72530461 C23.0789875,5.60752683 23.0700986,5.47048979 23.0263949,5.34530461 Z" id="Path" fill="white" fill-rule="nonzero"></path>
        </g>
    </g>
</svg>