<?xml version="1.0" encoding="UTF-8"?>
<svg width="24px" height="24px" viewBox="0 0 24 24" version="1.1" xmlns="http://www.w3.org/2000/svg" xmlns:xlink="http://www.w3.org/1999/xlink">
    <!-- Generator: Sketch 60 (88103) - https://sketch.com -->
    <title>icon-24-quotes-inactive</title>
    <desc>Created with Sketch.</desc>
    <g id="icon-24-quotes-inactive" stroke="none" stroke-width="1" fill="none" fill-rule="evenodd">
        <g id="Shape">
            <polygon points="0 0 24 0 24 24 0 24"></polygon>
            <path d="M20.7504603,17.2868276 L16.4839776,6.73744828 L9.91052928,4.99565517 L9.91052928,1.75862069 C9.91052928,1.33910345 9.57142584,1 9.15190859,1 C8.73239135,1 8.3932879,1.33910345 8.3932879,1.75862069 L8.3932879,5.36206897 L3.08294308,9.34482759 L3.08294308,20.7241379 C3.08294308,21.9811724 4.10177066,23 5.35880515,23 L12.945012,23 C13.633081,23 14.2422534,22.6882069 14.6602534,22.2057241 L19.4941845,20.25 C20.6594258,19.7788966 21.2215638,18.452069 20.7504603,17.2868276 Z M13.7036327,20.7241379 C13.7036327,21.1428966 13.3637707,21.4827586 12.945012,21.4827586 L5.35880515,21.4827586 C4.94004653,21.4827586 4.60018446,21.1428966 4.60018446,20.7241379 L4.60018446,10.1034483 L8.3932879,7.25862069 L8.3932879,10.3135862 C7.94114997,10.5768276 7.63466722,11.0608276 7.63466722,11.6206897 C7.63466722,12.4582069 8.31439135,13.137931 9.15190859,13.137931 C9.98942584,13.137931 10.66915,12.4582069 10.66915,11.6206897 C10.66915,11.0608276 10.3626672,10.5768276 9.91052928,10.3135862 L9.91052928,7.25862069 L13.7036327,10.1034483 L13.7036327,20.7241379 Z" fill="#3399CC" fill-rule="nonzero"></path>
        </g>
    </g>
</svg>